<?xml version="1.0" encoding="utf-8"?>
<!-- Generator: Adobe Illustrator 21.0.2, SVG Export Plug-In . SVG Version: 6.00 Build 0)  -->
<svg version="1.1" xmlns="http://www.w3.org/2000/svg" xmlns:xlink="http://www.w3.org/1999/xlink" x="0px" y="0px"
	 viewBox="0 0 283.5 283.5" style="enable-background:new 0 0 283.5 283.5;" xml:space="preserve">
<style type="text/css">
	.st0{fill:#FFFFFF;stroke:#000000;stroke-width:10;stroke-miterlimit:10;}
	.st1{fill:none;stroke:#000000;stroke-width:10;stroke-miterlimit:10;}
	.st2{fill:none;stroke:#000000;stroke-width:3;stroke-miterlimit:10;}
	.st3{fill:none;stroke:#000000;stroke-width:3.7463;stroke-miterlimit:10;}
	.st4{fill:none;stroke:#000000;stroke-width:5;stroke-miterlimit:10;}
	.st5{fill:none;stroke:#1D1D1B;stroke-width:5;stroke-linecap:round;stroke-miterlimit:10;}
	.st6{fill:none;stroke:#1D1D1B;stroke-width:10;stroke-linecap:round;stroke-miterlimit:10;}
	.st7{fill:none;stroke:#1D1D1B;stroke-width:10;stroke-miterlimit:10;}
	.st8{fill:#1D1D1B;}
</style>
<g id="Calque_1">
	<path class="st0" d="M174.2,118.7h-25.8c-2.2,0-3.9,1.8-3.9,3.9v3.4H52.3v103.3h125.8v-95V126v-3.4
		C178.1,120.4,176.3,118.7,174.2,118.7z"/>
	<path class="st0" d="M200.1,89.2h-25.8c-2.2,0-3.9,1.8-3.9,3.9v3.4H78.3v103.3h125.8v-95v-8.3v-3.4C204.1,91,202.3,89.2,200.1,89.2
		z"/>
	<path class="st0" d="M230.1,60.6h-25.8c-2.2,0-3.9,1.8-3.9,3.9v3.4h-92.1v103.3H234v-95v-8.3v-3.4C234,62.3,232.2,60.6,230.1,60.6z
		"/>
</g>
<g id="Calque_2">
</g>
<g id="Calque_3">
</g>
<g id="Calque_4">
</g>
</svg>
