<?xml version="1.0" encoding="utf-8"?>
<!-- Generator: Adobe Illustrator 21.0.2, SVG Export Plug-In . SVG Version: 6.00 Build 0)  -->
<svg version="1.1" xmlns="http://www.w3.org/2000/svg" xmlns:xlink="http://www.w3.org/1999/xlink" x="0px" y="0px"
	 viewBox="0 0 283.5 283.5" style="enable-background:new 0 0 283.5 283.5;" xml:space="preserve">
<style type="text/css">
	.st0{fill:#FFFFFF;stroke:#000000;stroke-width:10;stroke-miterlimit:10;}
	.st1{fill:none;stroke:#000000;stroke-width:10;stroke-miterlimit:10;}
	.st2{fill:none;stroke:#000000;stroke-width:3;stroke-miterlimit:10;}
	.st3{fill:none;stroke:#000000;stroke-width:3.7463;stroke-miterlimit:10;}
	.st4{fill:none;stroke:#000000;stroke-width:5;stroke-miterlimit:10;}
	.st5{fill:none;stroke:#1D1D1B;stroke-width:5;stroke-linecap:round;stroke-miterlimit:10;}
	.st6{fill:none;stroke:#1D1D1B;stroke-width:10;stroke-linecap:round;stroke-miterlimit:10;}
	.st7{fill:none;stroke:#1D1D1B;stroke-width:10;stroke-miterlimit:10;}
	.st8{fill:#1D1D1B;}
</style>
<g id="Calque_1">
	<g>
		<path d="M132.1,166.2H66.9c-2.6,0-4.7-2.1-4.7-4.7v-47.7c0-2.6,2.1-4.7,4.7-4.7h65.1c2.6,0,4.7,2.1,4.7,4.7v47.7
			C136.8,164.1,134.6,166.2,132.1,166.2z"/>
		<path d="M148.1,202.2h0.4c3.1,0,5.7-2.6,5.7-5.7v-117c0-3.1-2.6-5.7-5.7-5.7h-0.4c-3.1,0-5.7,2.6-5.7,5.7v117
			C142.4,199.6,145,202.2,148.1,202.2z"/>
		<polygon points="144.1,200.5 104.4,166.5 104.4,108.9 144.9,74.8 		"/>
		<path class="st6" d="M167.5,110.4c0,0,21,23.5,0,55.8"/>
		<path class="st6" d="M184.8,94.2c0,0,33.2,32.2,0,90"/>
		<path class="st6" d="M200.5,78.2c0,0,47.2,51.8,1.2,118.8"/>
	</g>
</g>
<g id="Calque_2">
</g>
<g id="Calque_3">
</g>
<g id="Calque_4">
</g>
</svg>
