<?xml version="1.0" encoding="utf-8"?>
<!-- Generator: Adobe Illustrator 21.0.2, SVG Export Plug-In . SVG Version: 6.00 Build 0)  -->
<svg version="1.1" id="Calque_1" xmlns="http://www.w3.org/2000/svg" xmlns:xlink="http://www.w3.org/1999/xlink" x="0px" y="0px"
	 viewBox="0 0 841.9 595.3" style="enable-background:new 0 0 841.9 595.3;" xml:space="preserve">
<style type="text/css">
	.st0{fill:#FDB82F;}
	.st1{fill:#EDEDED;}
	.st2{fill:#FFF7E6;}
</style>
<path class="st0" d="M609.1,276.9c-16.4-12.5-60.7-26.8-102.1-38.1V211c0,0-0.8-57.4-51.7-75.5c8.6-18.3,35.2-33.9,42.1-37.7
	c1.8,1.2,4,2,6.3,2c6.2,0,11.2-5,11.2-11.2s-5-11.2-11.2-11.2c-6.2,0-11.2,5-11.2,11.2c0,0.3,0,0.7,0.1,1
	c-28.4,12.1-45.4,37.5-48.6,42.7c-6.9-1.4-14.5-2.3-23-2.3c-8.6,0-16.4,0.8-23.3,2.2c-3.3-5.2-20.2-30.6-48.6-42.7
	c0-0.3,0.1-0.7,0.1-1c0-6.2-5-11.2-11.2-11.2c-6.2,0-11.2,5-11.2,11.2s5,11.2,11.2,11.2c2.3,0,4.5-0.7,6.3-2
	c6.9,3.8,33.4,19.3,42.1,37.6c-50.6,17.6-51.5,73-51.5,78.6c0,3.6,0,15.1,0,24.9c-41.4,11.4-85.4,25.6-101.8,38.1
	c-34,26-41.3,74-11.3,110.7c30,36.7,88.7,32.7,112,3.3c0.2-0.3,0.4-0.6,0.7-0.8v34.8c0,0-1.3,27.3,19.3,46.7
	c20.7,19.3,67.4,28,67.4,46.7l0-39.2c-0.2-7.8-10.5-9.9-31.3-18.5c-21-8.7-23.7-32.3-23.7-32.3h55l0-11.3h-55v-32.7h55l0-10.5h0h-55
	v-25l5.5-9h49.5l0,12l0-66.2h-14.6l14.6-23.2v0l0.1-0.1l0.1,0.1v0l13.9,23.2h-14l0,11.7h20.5l21,31.5H421l0,11h49.5l5.5,9v25h-55
	l0,10.5h54.6v32.7H421l0,11.3h54.6c0,11.3-11.6,24.3-21.3,31c-9.6,6.6-33.1,12-33.3,19.9l0,39.1c0-18.7,46.7-27.3,67.4-46.7
	c20.7-19.3,19.3-46.7,19.3-46.7v-34.8c0.2,0.3,0.5,0.6,0.7,0.8c23.3,29.3,82,33.3,112-3.3C650.4,350.9,643.1,302.9,609.1,276.9z
	 M365.4,215.4c0-4.3,0.9-54,55.5-54c54.6,0,55.3,52.1,55.3,52.1v17.3c-31.2-7.9-55.2-13.1-55.2-13.1s-24.2,5.2-55.6,13.2
	C365.4,224.6,365.4,217.6,365.4,215.4z M311.9,370.9c-19.7,16.7-47.6,13.3-64.3,0c-16.7-13.3-18-47.3,0-64.7s136.7-47.3,136.7-47.3
	S331.6,354.3,311.9,370.9z M420.9,297.3v31.5h-41.5l21-31.5H420.9z M594.4,370.9c-16.7,13.3-44.5,16.7-64.3,0
	c-19.7-16.7-72.4-112-72.4-112s118.7,30,136.7,47.3S611.1,357.6,594.4,370.9z"/>
</svg>
