<?xml version="1.0" encoding="utf-8"?>
<!-- Generator: Adobe Illustrator 21.0.2, SVG Export Plug-In . SVG Version: 6.00 Build 0)  -->
<svg version="1.1" xmlns="http://www.w3.org/2000/svg" xmlns:xlink="http://www.w3.org/1999/xlink" x="0px" y="0px"
	 viewBox="0 0 283.5 283.5" style="enable-background:new 0 0 283.5 283.5;" xml:space="preserve">
<style type="text/css">
	.st0{fill:#FFFFFF;stroke:#000000;stroke-width:10;stroke-miterlimit:10;}
	.st1{fill:none;stroke:#000000;stroke-width:10;stroke-miterlimit:10;}
	.st2{fill:none;stroke:#000000;stroke-width:3;stroke-miterlimit:10;}
	.st3{fill:none;stroke:#000000;stroke-width:3.7463;stroke-miterlimit:10;}
	.st4{fill:none;stroke:#000000;stroke-width:5;stroke-miterlimit:10;}
	.st5{fill:none;stroke:#1D1D1B;stroke-width:5;stroke-linecap:round;stroke-miterlimit:10;}
	.st6{fill:none;stroke:#1D1D1B;stroke-width:10;stroke-linecap:round;stroke-miterlimit:10;}
	.st7{fill:none;stroke:#1D1D1B;stroke-width:10;stroke-miterlimit:10;}
	.st8{fill:#1D1D1B;}
</style>
<g id="Calque_1">
	<g>
		<path d="M142,130.7c-39.8,0-72,20.2-72,45.2v56.5h144v-56.5C214,150.9,181.8,130.7,142,130.7z"/>
		<circle cx="142" cy="93.3" r="32.7"/>
	</g>
	<g>
		<path d="M220.4,103.7h-22.3V91.3c0-6.2,5-11.2,11.2-11.2s11.2,5,11.2,11.2V103.7z M202,99.8h14.4v-8.5c0-4-3.2-7.2-7.2-7.2
			s-7.2,3.2-7.2,7.2V99.8z"/>
		<path d="M221.2,98.5h-24c-2.1,0-3.8,1.7-3.8,3.8v26.6c0,2.1,1.7,3.8,3.8,3.8h24c2.1,0,3.8-1.7,3.8-3.8v-26.6
			C225,100.2,223.3,98.5,221.2,98.5z M214,126.8h-9.6l1.6-12.2c-1.5-1-2.5-2.7-2.5-4.6c0-3.1,2.5-5.6,5.6-5.6s5.6,2.5,5.6,5.6
			c0,1.9-1,3.6-2.5,4.6L214,126.8z"/>
	</g>
</g>
<g id="Calque_2">
</g>
<g id="Calque_3">
</g>
<g id="Calque_4">
</g>
</svg>
