<?xml version="1.0" encoding="utf-8"?>
<!-- Generator: Adobe Illustrator 21.0.2, SVG Export Plug-In . SVG Version: 6.00 Build 0)  -->
<svg version="1.1" xmlns="http://www.w3.org/2000/svg" xmlns:xlink="http://www.w3.org/1999/xlink" x="0px" y="0px"
	 viewBox="0 0 283.5 283.5" style="enable-background:new 0 0 283.5 283.5;" xml:space="preserve">
<style type="text/css">
	.st0{fill:#FFFFFF;stroke:#000000;stroke-width:10;stroke-miterlimit:10;}
	.st1{fill:none;stroke:#000000;stroke-width:10;stroke-miterlimit:10;}
	.st2{fill:none;stroke:#000000;stroke-width:3;stroke-miterlimit:10;}
	.st3{fill:none;stroke:#000000;stroke-width:3.7463;stroke-miterlimit:10;}
	.st4{fill:none;stroke:#000000;stroke-width:5;stroke-miterlimit:10;}
	.st5{fill:none;stroke:#1D1D1B;stroke-width:5;stroke-linecap:round;stroke-miterlimit:10;}
	.st6{fill:none;stroke:#1D1D1B;stroke-width:10;stroke-linecap:round;stroke-miterlimit:10;}
	.st7{fill:none;stroke:#1D1D1B;stroke-width:10;stroke-miterlimit:10;}
	.st8{fill:#1D1D1B;}
</style>
<g id="Calque_1">
	<g>
		<g>
			<circle cx="82.6" cy="114" r="23.1"/>
			<path d="M82.6,140.3c-28,0-50.8,14.3-50.8,31.9V212h101.5v-39.8C133.3,154.6,110.6,140.3,82.6,140.3z"/>
		</g>
		<g>
			<circle cx="206.6" cy="114" r="23.1"/>
			<path d="M206.6,140.3c-28,0-50.8,14.3-50.8,31.9V212h101.5v-39.8C257.4,154.6,234.6,140.3,206.6,140.3z"/>
		</g>
		<g>
			<path class="st2" d="M123,106.1c5.5,0,10,4.5,10,10s-4.5,10-10,10"/>
			<path class="st2" d="M135,103.1c7.2,0,13,5.8,13,13s-5.8,13-13,13"/>
			<path class="st2" d="M147,100.1c8.8,0,16,7.2,16,16s-7.2,16-16,16"/>
		</g>
	</g>
</g>
<g id="Calque_2">
</g>
<g id="Calque_3">
</g>
<g id="Calque_4">
</g>
</svg>
