<?xml version="1.0" encoding="utf-8"?>
<!-- Generator: Adobe Illustrator 21.0.2, SVG Export Plug-In . SVG Version: 6.00 Build 0)  -->
<svg version="1.1" xmlns="http://www.w3.org/2000/svg" xmlns:xlink="http://www.w3.org/1999/xlink" x="0px" y="0px"
	 viewBox="0 0 283.5 283.5" style="enable-background:new 0 0 283.5 283.5;" xml:space="preserve">
<style type="text/css">
	.st0{fill:#FFFFFF;stroke:#000000;stroke-width:10;stroke-miterlimit:10;}
	.st1{fill:none;stroke:#000000;stroke-width:10;stroke-miterlimit:10;}
	.st2{fill:none;stroke:#000000;stroke-width:3;stroke-miterlimit:10;}
	.st3{fill:none;stroke:#000000;stroke-width:3.7463;stroke-miterlimit:10;}
	.st4{fill:none;stroke:#000000;stroke-width:5;stroke-miterlimit:10;}
	.st5{fill:none;stroke:#1D1D1B;stroke-width:5;stroke-linecap:round;stroke-miterlimit:10;}
	.st6{fill:none;stroke:#1D1D1B;stroke-width:10;stroke-linecap:round;stroke-miterlimit:10;}
	.st7{fill:none;stroke:#1D1D1B;stroke-width:10;stroke-miterlimit:10;}
	.st8{fill:#1D1D1B;}
</style>
<g id="Calque_1">
	<g>
		<g>
			<circle cx="69.6" cy="111" r="23.1"/>
			<path d="M69.6,137.3c-28,0-50.8,14.3-50.8,31.9V209h101.5v-39.8C120.3,151.6,97.6,137.3,69.6,137.3z"/>
		</g>
		<g>
			<circle cx="212.6" cy="111" r="23.1"/>
			<path d="M212.6,137.3c-28,0-50.8,14.3-50.8,31.9V209h101.5v-39.8C263.4,151.6,240.6,137.3,212.6,137.3z"/>
		</g>
		<g>
			<path d="M141,137.3c-28,0-50.8,14.3-50.8,31.9V209h101.5v-39.8C191.7,151.6,169,137.3,141,137.3z"/>
			<circle cx="141" cy="111" r="23.1"/>
		</g>
	</g>
	<g>
		<g>
			<circle cx="69.6" cy="111" r="23.1"/>
			<path d="M69.6,137.3c-28,0-50.8,14.3-50.8,31.9V209h101.5v-39.8C120.3,151.6,97.6,137.3,69.6,137.3z"/>
		</g>
		<g>
			<circle cx="212.6" cy="111" r="23.1"/>
			<path d="M212.6,137.3c-28,0-50.8,14.3-50.8,31.9V209h101.5v-39.8C263.4,151.6,240.6,137.3,212.6,137.3z"/>
		</g>
		<g>
			<path d="M141,137.3c-28,0-50.8,14.3-50.8,31.9V209h101.5v-39.8C191.7,151.6,169,137.3,141,137.3z"/>
			<circle cx="141" cy="111" r="23.1"/>
		</g>
	</g>
	<path d="M220.1,124.4h-18.3c-1.6,0-2.9-1.3-2.9-2.9v-20.3c0-1.6,1.3-2.9,2.9-2.9h18.3c1.6,0,2.9,1.3,2.9,2.9v20.3
		C223,123.1,221.7,124.4,220.1,124.4z"/>
</g>
<g id="Calque_2">
</g>
<g id="Calque_3">
</g>
<g id="Calque_4">
</g>
</svg>
