<?xml version="1.0" encoding="utf-8"?>
<!-- Generator: Adobe Illustrator 21.0.0, SVG Export Plug-In . SVG Version: 6.00 Build 0)  -->
<svg version="1.1" id="Calque_1" xmlns="http://www.w3.org/2000/svg" xmlns:xlink="http://www.w3.org/1999/xlink" x="0px" y="0px"
	 viewBox="0 0 420.9 595.3" style="enable-background:new 0 0 420.9 595.3;" xml:space="preserve">
<style type="text/css">
	.st0{fill:#1D1D1B;}
	.st1{fill:none;stroke:#1D1D1B;stroke-width:19;stroke-miterlimit:10;}
</style>
<polygon class="st0" points="227.3,428.8 264.8,391.4 189.9,391.4 227.3,428.8 "/>
<rect x="189.7" y="346" transform="matrix(-4.490737e-11 1 -1 -4.490737e-11 584.7362 129.1836)" class="st0" width="76.2" height="22"/>
<path class="st1" d="M341.1,273.6c0-29.5-23.4-53.6-52.7-54.6c-10-10.8-24.3-17.6-40.2-17.6c-16.2,0-30.7,7-40.7,18.2
	c-2.7-0.4-5.4-0.6-8.2-0.6c-15.8,0-30,6.7-39.9,17.3c-1.6-0.1-3.2-0.2-4.9-0.2c-30.2,0-54.7,24.5-54.7,54.7
	c0,27,19.5,49.4,45.3,53.8c10,12.7,25.5,20.8,42.9,20.8c12.4,0,23.8-4.1,33-11.1c9.2,6.9,20.6,11.1,33,11.1
	c25.5,0,46.9-17.5,53-41.1C326.9,316.2,341.1,296.6,341.1,273.6z"/>
</svg>
