<?xml version="1.0" encoding="utf-8"?>
<!-- Generator: Adobe Illustrator 21.0.2, SVG Export Plug-In . SVG Version: 6.00 Build 0)  -->
<svg version="1.1" xmlns="http://www.w3.org/2000/svg" xmlns:xlink="http://www.w3.org/1999/xlink" x="0px" y="0px"
	 viewBox="0 0 283.5 283.5" style="enable-background:new 0 0 283.5 283.5;" xml:space="preserve">
<style type="text/css">
	.st0{fill:#FFFFFF;stroke:#000000;stroke-width:10;stroke-miterlimit:10;}
	.st1{fill:none;stroke:#000000;stroke-width:10;stroke-miterlimit:10;}
	.st2{fill:none;stroke:#000000;stroke-width:3;stroke-miterlimit:10;}
	.st3{fill:none;stroke:#000000;stroke-width:3.7463;stroke-miterlimit:10;}
	.st4{fill:none;stroke:#000000;stroke-width:5;stroke-miterlimit:10;}
	.st5{fill:none;stroke:#1D1D1B;stroke-width:5;stroke-linecap:round;stroke-miterlimit:10;}
	.st6{fill:none;stroke:#1D1D1B;stroke-width:10;stroke-linecap:round;stroke-miterlimit:10;}
	.st7{fill:none;stroke:#1D1D1B;stroke-width:10;stroke-miterlimit:10;}
	.st8{fill:#1D1D1B;}
</style>
<g id="Calque_1">
	<path d="M188.1,132.6c3.2-0.4,5.3-1.8,6.4-4c0.6-1.3,0.9-3,0.9-5.4c0-4.8-1.7-8.2-5.1-10.4c-3.4-2.2-8.2-3.2-14.5-3.2
		c-7.3,0-12.4,2-15.5,5.9c-1.7,2.2-2.8,5.4-3.3,9.7h-13c0.3-10.2,3.6-17.4,9.9-21.4c6.4-4,13.8-6,22.2-6c9.7,0,17.7,1.9,23.8,5.6
		c6,3.7,9,9.5,9,17.3v47.8c0,1.4,0.3,2.6,0.9,3.5c0.6,0.9,1.8,1.3,3.8,1.3c0.6,0,1.3,0,2.1-0.1c0.8-0.1,1.6-0.2,2.5-0.3v10.3
		c-2.2,0.6-3.8,1-5,1.2c-1.1,0.2-2.7,0.2-4.6,0.2c-4.8,0-8.3-1.7-10.5-5.1c-1.1-1.8-1.9-4.4-2.4-7.7c-2.8,3.7-6.9,6.9-12.2,9.7
		s-11.2,4.1-17.6,4.1c-7.7,0-14-2.3-18.9-7c-4.9-4.7-7.3-10.5-7.3-17.5c0-7.7,2.4-13.6,7.2-17.9c4.8-4.2,11.1-6.8,18.9-7.8
		L188.1,132.6z M158.8,170.3c2.9,2.3,6.4,3.5,10.5,3.5c4.9,0,9.7-1.1,14.3-3.4c7.7-3.8,11.6-9.9,11.6-18.5v-11.2
		c-1.7,1.1-3.9,2-6.6,2.7c-2.7,0.7-5.3,1.2-7.9,1.5l-8.4,1.1c-5,0.7-8.8,1.7-11.4,3.2c-4.3,2.4-6.5,6.3-6.5,11.6
		C154.4,164.8,155.8,168,158.8,170.3z"/>
	<path d="M134.5,181.6c-1.4,1.1-3,2-4.9,2.8c-1.9,0.8-4.2,1.2-7,1.2c-5.1,0-8.8-1.1-11-3.3s-3.8-5.2-4.7-9.1h-0.3
		c-0.4,0.9-1,2.1-1.7,3.6c-0.7,1.4-1.9,2.8-3.4,4.1c-1.5,1.3-3.6,2.4-6.1,3.3c-2.5,0.9-5.8,1.3-9.7,1.3c-4.4,0-8-0.5-10.6-1.5
		c-2.6-1-4.7-2.2-6.2-3.7c-1.5-1.5-2.5-3.1-2.9-5c-0.5-1.8-0.7-3.6-0.7-5.2c0-3.7,0.7-6.7,2.2-8.9c1.5-2.2,3.4-4,5.8-5.3
		c2.4-1.3,5-2.4,7.9-3.3c2.9-0.8,5.8-1.7,8.8-2.7c3.5-1.2,6.4-2.2,8.6-3c2.3-0.8,4-1.9,5.3-3.1c1.3-1.2,2.1-2.7,2.6-4.6
		c0.5-1.8,0.7-4.4,0.7-7.5c0-2.5-0.2-4.8-0.5-6.8c-0.3-2-0.9-3.7-1.7-5.2c-0.8-1.4-2.1-2.5-3.6-3.3c-1.6-0.7-3.7-1.1-6.3-1.1
		c-3.5,0-6.4,0.6-8.6,1.8c-2.3,1.2-3.4,3.2-3.4,6c0,1.8,0.2,3.6,0.5,5.3c0.3,1.8,0.5,3,0.5,3.9c0,1.5-0.5,2.7-1.6,3.7
		c-1.1,1-2.6,1.5-4.6,1.5c-3.5,0-5.7-0.6-6.5-1.9c-0.9-1.3-1.3-2.9-1.3-4.9c0-2.3,0.5-4.5,1.6-6.7c1.1-2.1,2.6-4,4.7-5.6
		c2.1-1.6,4.6-2.9,7.8-3.9c3.1-0.9,6.7-1.4,10.7-1.4c4.9,0,8.9,0.6,12.2,1.8s5.9,2.9,7.9,4.9c2,2.1,3.4,4.4,4.3,7
		c0.8,2.6,1.3,5.3,1.3,8.2v39.5c0,3.1,0.5,5.1,1.4,6.2c1,1.1,2.3,1.6,4.1,1.6c1.2,0,2.4-0.2,3.6-0.6c1.3-0.4,2.5-1.1,3.7-1.9
		L134.5,181.6z M106.7,144.5h-0.3c-0.2,1.4-2,2.8-5.2,4.1l-11.9,4.8c-3.4,1.4-6,3.3-7.8,5.8c-1.8,2.5-2.7,5.6-2.7,9.3
		c0,1.6,0.2,3.2,0.5,4.9c0.3,1.7,0.9,3.2,1.7,4.5c0.8,1.3,2,2.4,3.6,3.3c1.5,0.9,3.5,1.3,6,1.3c3.5,0,6.3-0.7,8.5-2.2
		c2.2-1.5,3.8-3.3,4.9-5.6c1.1-2.2,1.9-4.6,2.2-7.2c0.4-2.6,0.6-4.9,0.6-7.1V144.5z"/>
</g>
<g id="Calque_2">
</g>
<g id="Calque_3">
</g>
<g id="Calque_4">
</g>
</svg>
