<?xml version="1.0" encoding="utf-8"?>
<!-- Generator: Adobe Illustrator 21.0.0, SVG Export Plug-In . SVG Version: 6.00 Build 0)  -->
<svg version="1.1" id="Calque_1" xmlns="http://www.w3.org/2000/svg" xmlns:xlink="http://www.w3.org/1999/xlink" x="0px" y="0px"
	 viewBox="0 0 420.9 595.3" style="enable-background:new 0 0 420.9 595.3;" xml:space="preserve">
<style type="text/css">
	.st0{fill:#1D1D1B;}
	.st1{fill:#FFFFFF;}
</style>
<path class="st0" d="M200.5,299.6l-5-2.6c-2.7-1.4-6.1-0.3-7.6,2.4L128.4,415c-1.4,2.7-0.3,6.1,2.4,7.6l5,2.6
	c2.7,1.4,6.1,0.3,7.6-2.4l59.6-115.6C204.3,304.4,203.2,301,200.5,299.6z"/>
<circle class="st0" cx="222.9" cy="237.2" r="70.3"/>
<circle class="st1" cx="222.6" cy="237" r="51.3"/>
<rect x="265.4" y="313" class="st0" width="8.8" height="34.4"/>
<rect x="265.4" y="313" transform="matrix(-1.836970e-16 1 -1 -1.836970e-16 600.0026 60.4413)" class="st0" width="8.8" height="34.4"/>
<rect x="265.4" y="406.8" transform="matrix(-1.836970e-16 1 -1 -1.836970e-16 693.736 154.1747)" class="st0" width="8.8" height="34.4"/>
</svg>
